<?xml version="1.0" encoding="UTF-8" standalone="no"?>
<!DOCTYPE svg PUBLIC "-//W3C//DTD SVG 1.1//EN"
 "http://www.w3.org/Graphics/SVG/1.1/DTD/svg11.dtd">
<!-- Generated by graphviz version 2.36.0 (20140111.2315)
 -->
<!-- Title: %3 Pages: 1 -->
<svg width="374pt" height="294pt"
 viewBox="0.00 0.00 374.00 294.00" xmlns="http://www.w3.org/2000/svg" xmlns:xlink="http://www.w3.org/1999/xlink">
<g id="graph0" class="graph" transform="scale(1 1) rotate(0) translate(4 290)">
<title>%3</title>
<polygon fill="white" stroke="none" points="-4,4 -4,-290 370,-290 370,4 -4,4"/>
<!-- db -->
<g id="node1" class="node"><title>db</title>
<polygon fill="none" stroke="black" points="126,-212 76,-212 72,-208 72,-176 122,-176 126,-180 126,-212"/>
<polyline fill="none" stroke="black" points="122,-208 72,-208 "/>
<polyline fill="none" stroke="black" points="122,-208 122,-176 "/>
<polyline fill="none" stroke="black" points="122,-208 126,-212 "/>
<text text-anchor="middle" x="99" y="-189" font-family="Times,serif" font-size="20.00">db</text>
</g>
<!-- RDBMS -->
<g id="node2" class="node"><title>RDBMS</title>
<polygon fill="none" stroke="black" points="86.5,-286 3.5,-286 -0.5,-282 -0.5,-250 82.5,-250 86.5,-254 86.5,-286"/>
<polyline fill="none" stroke="black" points="82.5,-282 -0.5,-282 "/>
<polyline fill="none" stroke="black" points="82.5,-282 82.5,-250 "/>
<polyline fill="none" stroke="black" points="82.5,-282 86.5,-286 "/>
<text text-anchor="middle" x="43" y="-263" font-family="Times,serif" font-size="20.00">RDBMS</text>
</g>
<!-- db&#45;&gt;RDBMS -->
<g id="edge1" class="edge"><title>db&#45;&gt;RDBMS</title>
<path fill="none" stroke="black" d="M79.394,-220.208C71.8523,-229.904 63.4153,-240.752 56.565,-249.559"/>
<polygon fill="black" stroke="black" points="82.3521,-222.105 85.7288,-212.063 76.8266,-217.808 82.3521,-222.105"/>
</g>
<!-- MongoDB -->
<g id="node3" class="node"><title>MongoDB</title>
<polygon fill="none" stroke="black" points="207,-286 109,-286 105,-282 105,-250 203,-250 207,-254 207,-286"/>
<polyline fill="none" stroke="black" points="203,-282 105,-282 "/>
<polyline fill="none" stroke="black" points="203,-282 203,-250 "/>
<polyline fill="none" stroke="black" points="203,-282 207,-286 "/>
<text text-anchor="middle" x="156" y="-263" font-family="Times,serif" font-size="20.00">MongoDB</text>
</g>
<!-- db&#45;&gt;MongoDB -->
<g id="edge2" class="edge"><title>db&#45;&gt;MongoDB</title>
<path fill="none" stroke="black" d="M118.724,-219.914C126.459,-229.685 135.15,-240.663 142.193,-249.559"/>
<polygon fill="black" stroke="black" points="121.459,-217.731 112.508,-212.063 115.971,-222.076 121.459,-217.731"/>
</g>
<!-- server -->
<g id="node4" class="node"><title>server</title>
<polygon fill="none" stroke="black" points="160,-124 42,-124 38,-120 38,-88 156,-88 160,-92 160,-124"/>
<polyline fill="none" stroke="black" points="156,-120 38,-120 "/>
<polyline fill="none" stroke="black" points="156,-120 156,-88 "/>
<polyline fill="none" stroke="black" points="156,-120 160,-124 "/>
<text text-anchor="middle" x="99" y="-101" font-family="Times,serif" font-size="20.00"> &#160;&#160;RDBMS &#160;&#160;&#160;</text>
</g>
<!-- server&#45;&gt;db -->
<g id="edge3" class="edge"><title>server&#45;&gt;db</title>
<path fill="none" stroke="black" d="M84.8952,-124.156C81.2751,-129.544 77.8756,-135.731 76,-142 73.9619,-148.813 73.9619,-151.187 76,-158 76.9085,-161.037 78.1745,-164.054 79.65,-166.971"/>
<polygon fill="black" stroke="black" points="76.7936,-169.017 84.8952,-175.844 82.8195,-165.455 76.7936,-169.017"/>
<text text-anchor="middle" x="88.5" y="-146.3" font-family="Times,serif" font-size="14.00">crud</text>
</g>
<!-- server&#45;&gt;db -->
<g id="edge4" class="edge"><title>server&#45;&gt;db</title>
<path fill="none" stroke="black" d="M100.172,-124.081C100.51,-129.778 100.833,-136.16 101,-142 101.203,-149.108 101.203,-150.892 101,-158 100.927,-160.555 100.824,-163.214 100.703,-165.874"/>
<polygon fill="black" stroke="black" points="97.2051,-165.748 100.172,-175.919 104.195,-166.117 97.2051,-165.748"/>
<text text-anchor="middle" x="118" y="-146.3" font-family="Times,serif" font-size="14.00">query</text>
</g>
<!-- server&#45;&gt;server -->
<g id="edge5" class="edge"><title>server&#45;&gt;server</title>
<path fill="none" stroke="black" d="M160.279,-98.2984C170.747,-99.3508 178,-101.918 178,-106 178,-108.615 175.023,-110.608 170.132,-111.98"/>
<polygon fill="black" stroke="black" points="169.527,-108.533 160.279,-113.702 170.732,-115.428 169.527,-108.533"/>
<text text-anchor="middle" x="231" y="-102.3" font-family="Times,serif" font-size="14.00">create json schema</text>
</g>
<!-- client -->
<g id="node5" class="node"><title>client</title>
<polygon fill="none" stroke="black" points="126,-36 76,-36 72,-32 72,-0 122,-0 126,-4 126,-36"/>
<polyline fill="none" stroke="black" points="122,-32 72,-32 "/>
<polyline fill="none" stroke="black" points="122,-32 122,-0 "/>
<polyline fill="none" stroke="black" points="122,-32 126,-36 "/>
<text text-anchor="middle" x="99" y="-13" font-family="Times,serif" font-size="20.00">JS</text>
</g>
<!-- client&#45;&gt;server -->
<g id="edge6" class="edge"><title>client&#45;&gt;server</title>
<path fill="none" stroke="black" d="M71.5124,-33.0415C63.7682,-38.4646 56.2914,-45.4537 52,-54 47.0773,-63.8036 51.6116,-73.0889 59.4951,-80.983"/>
<polygon fill="black" stroke="black" points="57.6229,-83.9866 67.5013,-87.8165 62.1674,-78.6623 57.6229,-83.9866"/>
<text text-anchor="middle" x="64.5" y="-58.3" font-family="Times,serif" font-size="14.00">crud</text>
</g>
<!-- client&#45;&gt;server -->
<g id="edge7" class="edge"><title>client&#45;&gt;server</title>
<path fill="none" stroke="black" d="M99,-36.4034C99,-48.2541 99,-64.1831 99,-77.7083"/>
<polygon fill="black" stroke="black" points="95.5001,-77.916 99,-87.916 102.5,-77.916 95.5001,-77.916"/>
<text text-anchor="middle" x="115" y="-58.3" font-family="Times,serif" font-size="14.00">query</text>
</g>
<!-- client&#45;&gt;server -->
<g id="edge8" class="edge"><title>client&#45;&gt;server</title>
<path fill="none" stroke="black" d="M120.167,-36.3384C124.968,-41.4705 129.411,-47.4801 132,-54 135.582,-63.0205 132.324,-72.1465 126.68,-80.1363"/>
<polygon fill="black" stroke="black" points="123.84,-78.0777 120.123,-87.9992 129.215,-82.5612 123.84,-78.0777"/>
<text text-anchor="middle" x="154" y="-58.3" font-family="Times,serif" font-size="14.00">schema</text>
</g>
<!-- client&#45;&gt;client -->
<g id="edge9" class="edge"><title>client&#45;&gt;client</title>
<path fill="none" stroke="black" d="M126.241,-9.75806C136.024,-9.58081 144,-12.3281 144,-18 144,-21.4563 141.038,-23.8266 136.51,-25.1109"/>
<polygon fill="black" stroke="black" points="135.797,-21.6682 126.241,-26.2419 136.564,-28.6261 135.797,-21.6682"/>
<text text-anchor="middle" x="255" y="-14.3" font-family="Times,serif" font-size="14.00">create master detail views from schema</text>
</g>
</g>
</svg>
